
<!DOCTYPE svg PUBLIC "-//W3C//DTD SVG 1.1//EN" "http://www.w3.org/Graphics/SVG/1.1/DTD/svg11.dtd">
<svg xmlns="http://www.w3.org/2000/svg" version="1.1" width="2048px" height="2048px" style="shape-rendering:geometricPrecision; text-rendering:geometricPrecision; image-rendering:optimizeQuality; fill-rule:evenodd; clip-rule:evenodd" xmlns:xlink="http://www.w3.org/1999/xlink">
<g><path style="opacity:1" fill="#6334c6" d="M 2047.5,205.5 C 2047.5,749.833 2047.5,1294.17 2047.5,1838.5C 2038.21,1926.92 1993.54,1990.42 1913.5,2029C 1890.15,2038.34 1866.15,2044.5 1841.5,2047.5C 1296.17,2047.5 750.833,2047.5 205.5,2047.5C 128.08,2038.05 69.2464,2000.05 29,1933.5C 14.9955,1907.82 5.99548,1880.49 2,1851.5C 0.33906,1302.85 0.00572655,754.179 1,205.5C 11.5615,117.838 56.7282,55.3378 136.5,18C 158.599,8.72526 181.599,3.05859 205.5,1C 750.833,0.333333 1296.17,0.333333 1841.5,1C 1928.49,11.3551 1990.99,55.8551 2029,134.5C 2038.79,157.348 2044.96,181.015 2047.5,205.5 Z"/></g>
<g><path style="opacity:0.931" fill="#010004" d="M 202.5,-0.5 C 750.167,-0.5 1297.83,-0.5 1845.5,-0.5C 1935.25,11.7627 1998.09,59.4294 2034,142.5C 2040.25,159.175 2044.75,176.175 2047.5,193.5C 2047.5,197.5 2047.5,201.5 2047.5,205.5C 2044.96,181.015 2038.79,157.348 2029,134.5C 1990.99,55.8551 1928.49,11.3551 1841.5,1C 1296.17,0.333333 750.833,0.333333 205.5,1C 181.599,3.05859 158.599,8.72526 136.5,18C 56.7282,55.3378 11.5615,117.838 1,205.5C 0.00572655,754.179 0.33906,1302.85 2,1851.5C 5.99548,1880.49 14.9955,1907.82 29,1933.5C 69.2464,2000.05 128.08,2038.05 205.5,2047.5C 201.5,2047.5 197.5,2047.5 193.5,2047.5C 113.292,2033.66 55.1256,1990.32 19,1917.5C 8.88513,1894.35 2.38513,1870.35 -0.5,1845.5C -0.5,1297.83 -0.5,750.167 -0.5,202.5C 9.57132,125.301 47.9047,66.8008 114.5,27C 142.225,12.2557 171.559,3.08899 202.5,-0.5 Z"/></g>
<g><path style="opacity:1" fill="#ecf0fe" d="M 1249.5,367.5 C 1254.27,368.889 1259.27,369.556 1264.5,369.5C 1265.83,369.5 1267.17,369.5 1268.5,369.5C 1272.21,371.136 1276.21,371.802 1280.5,371.5C 1286.83,372.167 1293.17,372.833 1299.5,373.5C 1306.18,375.914 1313.18,377.247 1320.5,377.5C 1324.21,379.136 1328.21,379.802 1332.5,379.5C 1335.27,380.657 1338.27,381.324 1341.5,381.5C 1344.14,383.31 1347.14,384.31 1350.5,384.5C 1364.31,387.491 1377.64,391.991 1390.5,398C 1417.61,409.375 1442.61,424.042 1465.5,442C 1478.86,453.687 1490.36,466.854 1500,481.5C 1502.06,485.268 1503.22,489.268 1503.5,493.5C 1502.81,516.062 1495.31,536.062 1481,553.5C 1459.07,576.733 1432.9,593.566 1402.5,604C 1380.66,612.044 1358.33,618.377 1335.5,623C 1312.47,627.507 1289.47,632.173 1266.5,637C 1220.77,644.967 1174.77,650.967 1128.5,655C 1054.48,658.509 980.478,658.175 906.5,654C 864.302,649.719 822.302,644.052 780.5,637C 757.833,632.333 735.167,627.667 712.5,623C 675.478,616.216 640.478,603.883 607.5,586C 589.502,575.668 574.335,562.168 562,545.5C 551.027,529.891 545.527,512.558 545.5,493.5C 546.183,487.287 548.35,481.62 552,476.5C 575.088,445.716 604.254,422.716 639.5,407.5C 644.272,406.801 648.605,405.134 652.5,402.5C 655.397,401.871 658.064,400.871 660.5,399.5C 670.827,396.834 681.16,394.168 691.5,391.5C 698.187,390.248 704.52,388.581 710.5,386.5C 710.842,385.662 711.508,385.328 712.5,385.5C 721.234,384.454 729.9,382.954 738.5,381C 739.056,380.617 739.389,380.117 739.5,379.5C 743.514,379.666 747.514,379.499 751.5,379C 752.416,378.722 753.082,378.222 753.5,377.5C 753.833,377.5 754.167,377.5 754.5,377.5C 760.374,376.951 766.041,375.951 771.5,374.5C 776.1,374.72 780.433,374.054 784.5,372.5C 785.5,372.5 786.5,372.5 787.5,372.5C 792.1,372.72 796.433,372.054 800.5,370.5C 802.167,370.5 803.833,370.5 805.5,370.5C 811.81,369.846 818.143,369.346 824.5,369C 825.737,368.768 826.737,368.268 827.5,367.5C 894.221,362.369 961.054,360.036 1028,360.5C 1101.94,359.877 1175.78,362.21 1249.5,367.5 Z"/></g>
<g><path style="opacity:1" fill="#a48be0" d="M 1249.5,367.5 C 1254.73,367.444 1259.73,368.111 1264.5,369.5C 1259.27,369.556 1254.27,368.889 1249.5,367.5 Z"/></g>
<g><path style="opacity:1" fill="#c2b3ed" d="M 827.5,367.5 C 826.737,368.268 825.737,368.768 824.5,369C 818.143,369.346 811.81,369.846 805.5,370.5C 806.263,369.732 807.263,369.232 808.5,369C 814.827,368.349 821.16,367.849 827.5,367.5 Z"/></g>
<g><path style="opacity:1" fill="#9e83de" d="M 1268.5,369.5 C 1272.79,369.198 1276.79,369.864 1280.5,371.5C 1276.21,371.802 1272.21,371.136 1268.5,369.5 Z"/></g>
<g><path style="opacity:1" fill="#bdaeeb" d="M 800.5,370.5 C 796.433,372.054 792.1,372.72 787.5,372.5C 791.567,370.946 795.9,370.28 800.5,370.5 Z"/></g>
<g><path style="opacity:1" fill="#b9a7e9" d="M 784.5,372.5 C 780.433,374.054 776.1,374.72 771.5,374.5C 775.567,372.946 779.9,372.28 784.5,372.5 Z"/></g>
<g><path style="opacity:1" fill="#8b69d6" d="M 1299.5,373.5 C 1306.86,373.572 1313.86,374.906 1320.5,377.5C 1313.18,377.247 1306.18,375.914 1299.5,373.5 Z"/></g>
<g><path style="opacity:1" fill="#ad97e4" d="M 771.5,374.5 C 766.041,375.951 760.374,376.951 754.5,377.5C 759.83,375.333 765.497,374.333 771.5,374.5 Z"/></g>
<g><path style="opacity:1" fill="#9272d9" d="M 1320.5,377.5 C 1324.79,377.198 1328.79,377.864 1332.5,379.5C 1328.21,379.802 1324.21,379.136 1320.5,377.5 Z"/></g>
<g><path style="opacity:1" fill="#ccc1f1" d="M 753.5,377.5 C 753.082,378.222 752.416,378.722 751.5,379C 747.514,379.499 743.514,379.666 739.5,379.5C 743.995,378.578 748.662,377.911 753.5,377.5 Z"/></g>
<g><path style="opacity:1" fill="#9c7edb" d="M 1431.5,526.5 C 1430.44,514.361 1426.94,503.028 1421,492.5C 1391.52,459.487 1355.35,436.653 1312.5,424C 1279.48,413.93 1245.82,406.93 1211.5,403C 1086.83,391.672 962.167,391.672 837.5,403C 794.197,407.66 752.197,417.66 711.5,433C 679.142,446.723 651.309,466.556 628,492.5C 622.056,503.028 618.556,514.361 617.5,526.5C 613.876,519.33 612.709,511.663 614,503.5C 615.917,497.921 617.584,492.254 619,486.5C 622.262,480.307 626.262,474.64 631,469.5C 666.832,434.493 709.332,411.327 758.5,400C 787.176,393.165 816.176,388.165 845.5,385C 966.861,374.754 1088.19,375.088 1209.5,386C 1257.19,390.721 1303.19,402.055 1347.5,420C 1373.89,432.439 1397.39,448.939 1418,469.5C 1430.23,482.747 1435.9,498.413 1435,516.5C 1434.3,520.109 1433.13,523.442 1431.5,526.5 Z"/></g>
<g><path style="opacity:1" fill="#b8a6e9" d="M 739.5,379.5 C 739.389,380.117 739.056,380.617 738.5,381C 729.9,382.954 721.234,384.454 712.5,385.5C 721.211,382.755 730.211,380.755 739.5,379.5 Z"/></g>
<g><path style="opacity:1" fill="#a48be1" d="M 1341.5,381.5 C 1344.92,381.528 1347.92,382.528 1350.5,384.5C 1347.14,384.31 1344.14,383.31 1341.5,381.5 Z"/></g>
<g><path style="opacity:1" fill="#d1c9f3" d="M 710.5,386.5 C 704.52,388.581 698.187,390.248 691.5,391.5C 692.5,390.833 693.5,390.167 694.5,389.5C 699.482,387.261 704.816,386.261 710.5,386.5 Z"/></g>
<g><path style="opacity:1" fill="#ac96e4" d="M 694.5,389.5 C 693.5,390.167 692.5,390.833 691.5,391.5C 681.16,394.168 670.827,396.834 660.5,399.5C 671.55,395.548 682.883,392.215 694.5,389.5 Z"/></g>
<g><path style="opacity:1" fill="#6334c7" d="M 1431.5,526.5 C 1427.9,534.278 1422.9,541.112 1416.5,547C 1409.35,552.747 1401.68,557.747 1393.5,562C 1343.58,586.083 1291.25,602.75 1236.5,612C 1184.25,621.243 1131.58,625.743 1078.5,625.5C 1053.51,626.186 1028.51,626.519 1003.5,626.5C 974.516,625.234 945.516,624.401 916.5,624C 844.152,621.063 773.819,607.73 705.5,584C 682.223,575.194 659.89,564.527 638.5,552C 629.058,545.402 622.058,536.902 617.5,526.5C 618.556,514.361 622.056,503.028 628,492.5C 651.309,466.556 679.142,446.723 711.5,433C 752.197,417.66 794.197,407.66 837.5,403C 962.167,391.672 1086.83,391.672 1211.5,403C 1245.82,406.93 1279.48,413.93 1312.5,424C 1355.35,436.653 1391.52,459.487 1421,492.5C 1426.94,503.028 1430.44,514.361 1431.5,526.5 Z"/></g>
<g><path style="opacity:1" fill="#9a7edc" d="M 660.5,399.5 C 658.064,400.871 655.397,401.871 652.5,402.5C 654.617,400.345 657.284,399.345 660.5,399.5 Z"/></g>
<g><path style="opacity:1" fill="#c2b4ed" d="M 652.5,402.5 C 648.605,405.134 644.272,406.801 639.5,407.5C 643.459,405.027 647.793,403.36 652.5,402.5 Z"/></g>
<g><path style="opacity:1" fill="#9c7fdb" d="M 545.5,493.5 C 545.527,512.558 551.027,529.891 562,545.5C 574.335,562.168 589.502,575.668 607.5,586C 640.478,603.883 675.478,616.216 712.5,623C 735.167,627.667 757.833,632.333 780.5,637C 822.302,644.052 864.302,649.719 906.5,654C 980.478,658.175 1054.48,658.509 1128.5,655C 1174.77,650.967 1220.77,644.967 1266.5,637C 1289.47,632.173 1312.47,627.507 1335.5,623C 1358.33,618.377 1380.66,612.044 1402.5,604C 1432.9,593.566 1459.07,576.733 1481,553.5C 1495.31,536.062 1502.81,516.062 1503.5,493.5C 1505.33,496.135 1506.49,499.135 1507,502.5C 1508.17,525.995 1501.5,546.995 1487,565.5C 1464.39,591.07 1436.89,609.57 1404.5,621C 1380.64,629.382 1356.31,636.048 1331.5,641C 1260.31,657.087 1188.31,667.754 1115.5,673C 1054.83,675 994.167,675 933.5,673C 860.688,667.753 788.688,657.087 717.5,641C 680.448,634.316 645.115,622.649 611.5,606C 592.441,595.708 575.941,582.208 562,565.5C 547.498,546.995 540.832,525.995 542,502.5C 542.505,499.135 543.672,496.135 545.5,493.5 Z"/></g>
<g><path style="opacity:1" fill="#edf1fe" d="M 395.5,526.5 C 395.174,529.311 394.341,531.978 393,534.5C 388.7,537.798 384.7,541.465 381,545.5C 367.877,559.755 356.211,575.088 346,591.5C 345.066,595.637 343.732,599.637 342,603.5C 340.604,612.652 341.771,621.319 345.5,629.5C 346.517,633.867 348.35,637.867 351,641.5C 365.447,659.614 380.947,676.781 397.5,693C 421.356,715.191 444.856,737.691 468,760.5C 503.442,800.02 530.775,844.687 550,894.5C 552.817,903.114 555.317,911.781 557.5,920.5C 560.299,932.368 562.466,944.368 564,956.5C 565.581,976.827 565.914,997.16 565,1017.5C 565.876,1019.64 567.376,1020.97 569.5,1021.5C 598.455,1037.95 626.789,1055.45 654.5,1074C 674.833,1089.67 695.167,1105.33 715.5,1121C 722.97,1127.47 730.136,1134.3 737,1141.5C 753.437,1161.94 769.103,1182.94 784,1204.5C 797.847,1228.53 808.68,1253.86 816.5,1280.5C 816.345,1283.72 817.345,1286.38 819.5,1288.5C 822.032,1297.6 824.865,1306.6 828,1315.5C 853.195,1347.22 870.361,1382.89 879.5,1422.5C 879.171,1425.23 879.837,1427.56 881.5,1429.5C 881.5,1429.83 881.5,1430.17 881.5,1430.5C 881.171,1433.23 881.837,1435.56 883.5,1437.5C 887.618,1451.5 891.285,1465.5 894.5,1479.5C 896.852,1506.58 891.352,1531.91 878,1555.5C 852.787,1597.2 817.62,1627.37 772.5,1646C 741.69,1655.87 710.356,1663.54 678.5,1669C 656.483,1669.77 634.483,1669.44 612.5,1668C 572.328,1661.98 532.328,1654.98 492.5,1647C 467.261,1641.7 442.595,1634.37 418.5,1625C 406.354,1619.43 394.687,1613.1 383.5,1606C 347.674,1595.72 313.341,1581.72 280.5,1564C 251.069,1544.95 223.069,1523.95 196.5,1501C 185.94,1491.01 176.44,1480.18 168,1468.5C 158.301,1452.51 154.134,1435.17 155.5,1416.5C 159.574,1394.1 172.574,1380.1 194.5,1374.5C 196.806,1374.01 199.139,1373.67 201.5,1373.5C 205.455,1374.08 208.455,1372.75 210.5,1369.5C 209.812,1368.15 208.812,1367.15 207.5,1366.5C 152.579,1321.03 113.745,1264.37 91,1196.5C 86.7399,1181.81 84.9066,1166.81 85.5,1151.5C 88.2354,1135.96 96.2354,1124.13 109.5,1116C 113.268,1113.94 117.268,1112.78 121.5,1112.5C 132.141,1111.76 142.808,1111.26 153.5,1111C 156.302,1109.27 156.969,1107.1 155.5,1104.5C 147.437,1085.15 139.27,1065.82 131,1046.5C 122.456,1020.32 115.789,993.658 111,966.5C 105.852,931.379 106.352,896.379 112.5,861.5C 114.277,858.495 115.277,855.162 115.5,851.5C 120.942,827.64 132.942,807.807 151.5,792C 168.75,782.917 186.416,782.083 204.5,789.5C 211.673,759.809 219.006,730.142 226.5,700.5C 228.688,694.748 230.355,688.748 231.5,682.5C 233.164,676.344 235.33,670.344 238,664.5C 244.241,651.681 250.241,638.681 256,625.5C 272.68,589.824 295.18,558.324 323.5,531C 335.195,519.819 348.528,511.152 363.5,505C 375.522,502.562 385.356,506.062 393,515.5C 394.904,518.923 395.737,522.59 395.5,526.5 Z"/></g>
<g><path style="opacity:1" fill="#cbc1f1" d="M 1682.5,505.5 C 1676.8,505.375 1671.13,505.708 1665.5,506.5C 1668.53,504.981 1671.86,504.315 1675.5,504.5C 1678.03,504.503 1680.36,504.837 1682.5,505.5 Z"/></g>
<g><path style="opacity:1" fill="#edf1fe" d="M 1682.5,505.5 C 1692.79,508.478 1702.12,513.311 1710.5,520C 1726.33,533.167 1740.83,547.667 1754,563.5C 1763.83,577.828 1773.17,592.495 1782,607.5C 1790.56,624.624 1798.56,641.958 1806,659.5C 1808.33,660.5 1810,662.167 1811,664.5C 1815.86,678.76 1820.53,693.094 1825,707.5C 1831.04,734.667 1837.54,761.667 1844.5,788.5C 1867.26,779.904 1887.43,783.904 1905,800.5C 1918.04,815.253 1926.88,832.253 1931.5,851.5C 1931.72,855.162 1932.72,858.495 1934.5,861.5C 1943.3,913.843 1940.14,965.51 1925,1016.5C 1921.12,1026.23 1918.12,1036.23 1916,1046.5C 1907.73,1065.82 1899.56,1085.15 1891.5,1104.5C 1890.03,1107.1 1890.7,1109.27 1893.5,1111C 1902.49,1111.5 1911.49,1111.67 1920.5,1111.5C 1943.32,1115.32 1956.99,1128.66 1961.5,1151.5C 1962.09,1166.81 1960.26,1181.81 1956,1196.5C 1933.32,1264.57 1894.32,1321.23 1839,1366.5C 1838.26,1368.44 1838.42,1370.27 1839.5,1372C 1844.58,1372.96 1849.58,1374.12 1854.5,1375.5C 1875.5,1381.18 1887.84,1394.84 1891.5,1416.5C 1892.93,1439.71 1886.43,1460.38 1872,1478.5C 1814.63,1540.45 1745.13,1582.95 1663.5,1606C 1643.44,1618.36 1622.1,1628.03 1599.5,1635C 1587.6,1638.64 1575.6,1641.98 1563.5,1645C 1523.29,1652.98 1482.95,1660.31 1442.5,1667C 1412.15,1670.23 1381.82,1670.23 1351.5,1667C 1330.77,1661.98 1310.1,1656.65 1289.5,1651C 1231.27,1630.76 1188.77,1592.93 1162,1537.5C 1155.43,1518.71 1152.93,1499.37 1154.5,1479.5C 1157.71,1465.5 1161.38,1451.5 1165.5,1437.5C 1167.16,1435.56 1167.83,1433.23 1167.5,1430.5C 1167.5,1430.17 1167.5,1429.83 1167.5,1429.5C 1169.16,1427.56 1169.83,1425.23 1169.5,1422.5C 1171.29,1414.46 1173.29,1406.46 1175.5,1398.5C 1177.16,1396.56 1177.83,1394.23 1177.5,1391.5C 1180.33,1379.85 1184.83,1368.85 1191,1358.5C 1199.82,1342.03 1209.82,1326.36 1221,1311.5C 1223.07,1303.79 1225.24,1296.12 1227.5,1288.5C 1229.65,1286.38 1230.65,1283.72 1230.5,1280.5C 1240.26,1246.65 1255.09,1215.32 1275,1186.5C 1286.52,1170.8 1298.52,1155.47 1311,1140.5C 1319.23,1131.6 1328.07,1123.43 1337.5,1116C 1368.11,1091.06 1400.11,1068.06 1433.5,1047C 1448.39,1038.73 1463.06,1030.23 1477.5,1021.5C 1479.45,1020.72 1480.95,1019.38 1482,1017.5C 1481.09,997.16 1481.42,976.827 1483,956.5C 1484.53,944.368 1486.7,932.368 1489.5,920.5C 1497.6,888.967 1510.1,859.3 1527,831.5C 1542.13,806.236 1559.47,782.569 1579,760.5C 1602.48,737.357 1626.31,714.524 1650.5,692C 1666.75,676.088 1681.92,659.255 1696,641.5C 1698.65,637.867 1700.48,633.867 1701.5,629.5C 1706.97,617.21 1706.8,604.876 1701,592.5C 1690.87,575.704 1679.21,560.038 1666,545.5C 1662.3,541.465 1658.3,537.798 1654,534.5C 1652.66,531.978 1651.83,529.311 1651.5,526.5C 1651.84,516.827 1656.5,510.16 1665.5,506.5C 1671.13,505.708 1676.8,505.375 1682.5,505.5 Z"/></g>
<g><path style="opacity:1" fill="#9c7fdb" d="M 395.5,526.5 C 397.694,528.221 398.861,530.555 399,533.5C 399.81,538.257 399.476,542.924 398,547.5C 382.223,563.278 367.889,580.278 355,598.5C 348.902,607.958 345.736,618.291 345.5,629.5C 341.771,621.319 340.604,612.652 342,603.5C 343.732,599.637 345.066,595.637 346,591.5C 356.211,575.088 367.877,559.755 381,545.5C 384.7,541.465 388.7,537.798 393,534.5C 394.341,531.978 395.174,529.311 395.5,526.5 Z"/></g>
<g><path style="opacity:1" fill="#9c7edb" d="M 1651.5,526.5 C 1651.83,529.311 1652.66,531.978 1654,534.5C 1658.3,537.798 1662.3,541.465 1666,545.5C 1679.21,560.038 1690.87,575.704 1701,592.5C 1706.8,604.876 1706.97,617.21 1701.5,629.5C 1701.26,618.291 1698.1,607.958 1692,598.5C 1679.11,580.278 1664.78,563.278 1649,547.5C 1647.52,542.924 1647.19,538.257 1648,533.5C 1648.14,530.555 1649.31,528.221 1651.5,526.5 Z"/></g>
<g><path style="opacity:1" fill="#cec6f2" d="M 1078.5,625.5 C 1062.69,626.908 1046.69,627.574 1030.5,627.5C 1021.33,627.5 1012.33,627.166 1003.5,626.5C 1028.51,626.519 1053.51,626.186 1078.5,625.5 Z"/></g>
<g><path style="opacity:1" fill="#c0b0eb" d="M 304.5,645.5 C 306.948,644.527 309.615,644.194 312.5,644.5C 311.712,650.339 309.712,655.672 306.5,660.5C 306.796,657.083 307.796,653.916 309.5,651C 309.057,649.175 308.723,647.342 308.5,645.5C 307.167,645.5 305.833,645.5 304.5,645.5 Z"/></g>
<g><path style="opacity:1" fill="#bfafea" d="M 294.5,654.5 C 292.182,661.771 290.515,669.104 289.5,676.5C 288.675,668.478 290.341,661.145 294.5,654.5 Z"/></g>
<g><path style="opacity:1" fill="#bfafea" d="M 1752.5,654.5 C 1756.66,661.145 1758.33,668.478 1757.5,676.5C 1756.48,669.104 1754.82,661.771 1752.5,654.5 Z"/></g>
<g><path style="opacity:1" fill="#b19be4" d="M 231.5,682.5 C 230.355,688.748 228.688,694.748 226.5,700.5C 226.98,694.073 228.647,688.073 231.5,682.5 Z"/></g>
<g><path style="opacity:1" fill="#d5cef4" d="M 303.5,670.5 C 302.698,682.148 302.365,693.815 302.5,705.5C 301.341,695.342 301.175,685.008 302,674.5C 302.21,672.942 302.71,671.609 303.5,670.5 Z"/></g>
<g><path style="opacity:1" fill="#d5cef4" d="M 1743.5,670.5 C 1744.29,671.609 1744.79,672.942 1745,674.5C 1745.83,685.008 1745.66,695.342 1744.5,705.5C 1744.64,693.815 1744.3,682.148 1743.5,670.5 Z"/></g>
<g><path style="opacity:1" fill="#a286de" d="M 304.5,645.5 C 305.833,645.5 307.167,645.5 308.5,645.5C 308.723,647.342 309.057,649.175 309.5,651C 307.796,653.916 306.796,657.083 306.5,660.5C 304.395,663.408 303.395,666.742 303.5,670.5C 302.71,671.609 302.21,672.942 302,674.5C 301.175,685.008 301.341,695.342 302.5,705.5C 302.465,712.986 303.465,720.32 305.5,727.5C 304.35,726.15 303.683,726.316 303.5,728C 304.148,729.44 304.481,730.94 304.5,732.5C 299.325,731.507 297.491,733.507 299,738.5C 304.052,750.94 309.386,763.273 315,775.5C 317.411,781.329 320.578,786.662 324.5,791.5C 326.518,794.74 327.852,798.24 328.5,802C 332.645,806.79 335.312,812.29 336.5,818.5C 318.52,791.208 303.686,762.208 292,731.5C 291.637,726.049 290.804,720.716 289.5,715.5C 288.582,703.197 288.248,690.864 288.5,678.5C 288.833,677.833 289.167,677.167 289.5,676.5C 290.515,669.104 292.182,661.771 294.5,654.5C 295.986,649.343 299.319,646.343 304.5,645.5 Z"/></g>
<g><path style="opacity:1" fill="#a286de" d="M 1752.5,654.5 C 1754.82,661.771 1756.48,669.104 1757.5,676.5C 1757.83,677.167 1758.17,677.833 1758.5,678.5C 1758.75,690.864 1758.42,703.197 1757.5,715.5C 1756.2,720.716 1755.36,726.049 1755,731.5C 1754.72,732.416 1754.22,733.082 1753.5,733.5C 1753.18,727.298 1752.35,727.631 1751,734.5C 1749.19,732.604 1747.03,732.104 1744.5,733C 1742.62,735.251 1741.12,737.751 1740,740.5C 1740,738.5 1740,736.5 1740,734.5C 1739.72,735.416 1739.22,736.082 1738.5,736.5C 1740.9,729.688 1742.73,722.688 1744,715.5C 1744.5,712.183 1744.67,708.85 1744.5,705.5C 1745.66,695.342 1745.83,685.008 1745,674.5C 1744.79,672.942 1744.29,671.609 1743.5,670.5C 1742.63,662.659 1739.8,655.659 1735,649.5C 1734.51,644.008 1737.01,642.175 1742.5,644C 1746.71,646.711 1750.05,650.211 1752.5,654.5 Z"/></g>
<g><path style="opacity:1" fill="#d2caf3" d="M 288.5,678.5 C 288.248,690.864 288.582,703.197 289.5,715.5C 288.732,714.737 288.232,713.737 288,712.5C 287.174,700.992 287.341,689.659 288.5,678.5 Z"/></g>
<g><path style="opacity:1" fill="#d2caf3" d="M 1758.5,678.5 C 1759.66,689.659 1759.83,700.992 1759,712.5C 1758.77,713.737 1758.27,714.737 1757.5,715.5C 1758.42,703.197 1758.75,690.864 1758.5,678.5 Z"/></g>
<g><path style="opacity:1" fill="#9e81dc" d="M 305.5,727.5 C 317.143,758.439 331.81,787.772 349.5,815.5C 349.799,817.604 349.466,819.604 348.5,821.5C 345.667,822.933 342.667,823.6 339.5,823.5C 338.075,822.078 337.075,820.411 336.5,818.5C 335.312,812.29 332.645,806.79 328.5,802C 327.852,798.24 326.518,794.74 324.5,791.5C 320.578,786.662 317.411,781.329 315,775.5C 309.386,763.273 304.052,750.94 299,738.5C 297.491,733.507 299.325,731.507 304.5,732.5C 304.481,730.94 304.148,729.44 303.5,728C 303.683,726.316 304.35,726.15 305.5,727.5 Z"/></g>
<g><path style="opacity:1" fill="#9d80db" d="M 1753.5,733.5 C 1750.01,744.465 1745.85,755.132 1741,765.5C 1730.44,783.489 1720.44,801.823 1711,820.5C 1709.96,821.71 1708.79,822.71 1707.5,823.5C 1705.06,823.244 1702.73,822.577 1700.5,821.5C 1699.37,819.926 1699.2,818.259 1700,816.5C 1706.45,808.714 1712.12,800.381 1717,791.5C 1723.98,776.966 1730.81,762.133 1737.5,747C 1736.58,744.959 1736.24,742.792 1736.5,740.5C 1736.66,738.847 1737.33,737.514 1738.5,736.5C 1739.22,736.082 1739.72,735.416 1740,734.5C 1740,736.5 1740,738.5 1740,740.5C 1741.12,737.751 1742.62,735.251 1744.5,733C 1747.03,732.104 1749.19,732.604 1751,734.5C 1752.35,727.631 1753.18,727.298 1753.5,733.5 Z"/></g>
<g><path style="opacity:1" fill="#a68cdf" d="M 1736.5,740.5 C 1736.24,742.792 1736.58,744.959 1737.5,747C 1730.81,762.133 1723.98,776.966 1717,791.5C 1712.12,800.381 1706.45,808.714 1700,816.5C 1699.2,818.259 1699.37,819.926 1700.5,821.5C 1702.73,822.577 1705.06,823.244 1707.5,823.5C 1688.66,853.34 1664.99,878.673 1636.5,899.5C 1631.65,899.92 1628.99,897.753 1628.5,893C 1629.71,891.961 1630.71,890.794 1631.5,889.5C 1678.58,848.349 1713.58,798.682 1736.5,740.5 Z"/></g>
<g><path style="opacity:1" fill="#a489df" d="M 349.5,815.5 C 356.47,824.651 363.303,833.984 370,843.5C 377.849,852.563 385.682,861.563 393.5,870.5C 391.958,871.045 391.125,872.711 391,875.5C 389.795,876.071 388.628,876.738 387.5,877.5C 390.458,879.956 393.291,882.622 396,885.5C 396.667,886.167 396.667,886.833 396,887.5C 395.329,886.748 394.496,886.414 393.5,886.5C 372.593,867.931 354.593,846.931 339.5,823.5C 342.667,823.6 345.667,822.933 348.5,821.5C 349.466,819.604 349.799,817.604 349.5,815.5 Z"/></g>
<g><path style="opacity:1" fill="#c2b3ec" d="M 1863.5,882.5 C 1863.77,875.031 1862.93,867.698 1861,860.5C 1858.86,856.326 1856.02,855.659 1852.5,858.5C 1851.83,867.991 1851.17,877.325 1850.5,886.5C 1850.38,875.888 1850.38,865.388 1850.5,855C 1856.35,853.843 1860.52,856.009 1863,861.5C 1864.64,868.621 1864.81,875.621 1863.5,882.5 Z"/></g>
<g><path style="opacity:1" fill="#beadea" d="M 196.5,886.5 C 194.903,877.717 194.236,868.717 194.5,859.5C 192.516,859.617 190.85,858.95 189.5,857.5C 187.041,858.791 185.541,860.791 185,863.5C 184.351,875.848 184.518,888.181 185.5,900.5C 183.79,892.061 182.79,883.395 182.5,874.5C 182.302,869.307 183.135,864.307 185,859.5C 188.07,855.045 192.07,853.712 197,855.5C 196.601,865.788 196.435,876.122 196.5,886.5 Z"/></g>
<g><path style="opacity:1" fill="#b9a6e8" d="M 115.5,851.5 C 115.277,855.162 114.277,858.495 112.5,861.5C 112.723,857.838 113.723,854.505 115.5,851.5 Z"/></g>
<g><path style="opacity:1" fill="#b9a6e8" d="M 1931.5,851.5 C 1933.28,854.505 1934.28,857.838 1934.5,861.5C 1932.72,858.495 1931.72,855.162 1931.5,851.5 Z"/></g>
<g><path style="opacity:1" fill="#ad96e2" d="M 393.5,870.5 C 399.33,876.162 405.33,881.662 411.5,887C 417.656,890.997 423.656,895.164 429.5,899.5C 428.068,904.968 424.734,906.968 419.5,905.5C 410.086,900.132 401.419,893.799 393.5,886.5C 394.496,886.414 395.329,886.748 396,887.5C 396.667,886.833 396.667,886.167 396,885.5C 393.291,882.622 390.458,879.956 387.5,877.5C 388.628,876.738 389.795,876.071 391,875.5C 391.125,872.711 391.958,871.045 393.5,870.5 Z"/></g>
<g><path style="opacity:1" fill="#9d80db" d="M 112.5,861.5 C 106.352,896.379 105.852,931.379 111,966.5C 115.789,993.658 122.456,1020.32 131,1046.5C 139.27,1065.82 147.437,1085.15 155.5,1104.5C 154.873,1109.12 152.206,1111.12 147.5,1110.5C 140.104,1091.82 132.604,1073.15 125,1054.5C 114.192,1021.27 107.192,987.272 104,952.5C 102.691,929.387 103.691,906.387 107,883.5C 108.236,875.891 110.069,868.558 112.5,861.5 Z"/></g>
<g><path style="opacity:1" fill="#9d80db" d="M 1934.5,861.5 C 1939.15,876.367 1941.98,891.701 1943,907.5C 1945.57,945.456 1941.91,982.789 1932,1019.5C 1928.46,1031.11 1925.13,1042.77 1922,1054.5C 1914.4,1073.15 1906.9,1091.82 1899.5,1110.5C 1894.79,1111.12 1892.13,1109.12 1891.5,1104.5C 1899.56,1085.15 1907.73,1065.82 1916,1046.5C 1918.12,1036.23 1921.12,1026.23 1925,1016.5C 1940.14,965.51 1943.3,913.843 1934.5,861.5 Z"/></g>
<g><path style="opacity:1" fill="#bbaae9" d="M 429.5,899.5 C 435.38,903.267 441.046,907.267 446.5,911.5C 446.5,913.167 446.5,914.833 446.5,916.5C 442.5,915.5 438.5,914.5 434.5,913.5C 429.381,910.979 424.381,908.313 419.5,905.5C 424.734,906.968 428.068,904.968 429.5,899.5 Z"/></g>
<g><path style="opacity:1" fill="#b7a3e7" d="M 1631.5,889.5 C 1630.71,890.794 1629.71,891.961 1628.5,893C 1628.99,897.753 1631.65,899.92 1636.5,899.5C 1629.13,904.853 1621.13,909.186 1612.5,912.5C 1611.45,912.649 1610.45,912.483 1609.5,912C 1610.1,910.372 1609.76,908.705 1608.5,907C 1609.71,905.961 1610.71,904.794 1611.5,903.5C 1617.88,898.451 1624.55,893.785 1631.5,889.5 Z"/></g>
<g><path style="opacity:1" fill="#c6b9ed" d="M 1611.5,903.5 C 1610.71,904.794 1609.71,905.961 1608.5,907C 1609.76,908.705 1610.1,910.372 1609.5,912C 1610.45,912.483 1611.45,912.649 1612.5,912.5C 1608.6,914.449 1604.6,916.449 1600.5,918.5C 1597.91,919.48 1595.25,919.813 1592.5,919.5C 1592.24,918.022 1592.57,916.689 1593.5,915.5C 1599.26,911.056 1605.26,907.056 1611.5,903.5 Z"/></g>
<g><path style="opacity:1" fill="#d0c7f2" d="M 446.5,911.5 C 450.338,912.995 452.671,915.662 453.5,919.5C 446.359,919.748 440.026,917.748 434.5,913.5C 438.5,914.5 442.5,915.5 446.5,916.5C 446.5,914.833 446.5,913.167 446.5,911.5 Z"/></g>
<g><path style="opacity:1" fill="#a68cdf" d="M 1863.5,882.5 C 1861.24,900.895 1857.07,918.895 1851,936.5C 1840.9,960.718 1828.23,983.385 1813,1004.5C 1804.66,1013.87 1796.32,1023.21 1788,1032.5C 1784.59,1036.42 1780.76,1039.75 1776.5,1042.5C 1770.07,1043.64 1767.74,1040.97 1769.5,1034.5C 1773.35,1031.3 1777.19,1027.97 1781,1024.5C 1796.81,1004.88 1811.15,984.213 1824,962.5C 1828.41,953.343 1833.08,944.343 1838,935.5C 1843.75,919.45 1847.91,903.117 1850.5,886.5C 1851.17,877.325 1851.83,867.991 1852.5,858.5C 1856.02,855.659 1858.86,856.326 1861,860.5C 1862.93,867.698 1863.77,875.031 1863.5,882.5 Z"/></g>
<g><path style="opacity:1" fill="#9f82dc" d="M 557.5,920.5 C 562.699,934.975 566.199,949.975 568,965.5C 569.834,984.162 570.334,1002.83 569.5,1021.5C 567.376,1020.97 565.876,1019.64 565,1017.5C 565.914,997.16 565.581,976.827 564,956.5C 562.466,944.368 560.299,932.368 557.5,920.5 Z"/></g>
<g><path style="opacity:1" fill="#9f82dc" d="M 1489.5,920.5 C 1486.7,932.368 1484.53,944.368 1483,956.5C 1481.42,976.827 1481.09,997.16 1482,1017.5C 1480.95,1019.38 1479.45,1020.72 1477.5,1021.5C 1476.3,994.974 1478.14,968.641 1483,942.5C 1484.57,934.866 1486.74,927.533 1489.5,920.5 Z"/></g>
<g><path style="opacity:1" fill="#a68cdf" d="M 196.5,886.5 C 199.086,903.117 203.252,919.45 209,935.5C 214.255,945.01 219.255,954.676 224,964.5C 232.214,978.708 241.214,992.375 251,1005.5C 260.04,1015.04 268.873,1024.7 277.5,1034.5C 277.108,1036.18 276.608,1037.85 276,1039.5C 273.628,1040.73 272.128,1042.07 271.5,1043.5C 264.564,1038.07 258.064,1032.07 252,1025.5C 219.315,989.466 197.149,947.799 185.5,900.5C 184.518,888.181 184.351,875.848 185,863.5C 185.541,860.791 187.041,858.791 189.5,857.5C 190.85,858.95 192.516,859.617 194.5,859.5C 194.236,868.717 194.903,877.717 196.5,886.5 Z"/></g>
<g><path style="opacity:1" fill="#b29de5" d="M 277.5,1034.5 C 285.208,1041.54 293.208,1048.21 301.5,1054.5C 299.896,1056.79 298.229,1059.12 296.5,1061.5C 295.583,1060.87 294.583,1060.54 293.5,1060.5C 292.078,1060.29 290.745,1059.79 289.5,1059C 283.013,1054.34 277.013,1049.18 271.5,1043.5C 272.128,1042.07 273.628,1040.73 276,1039.5C 276.608,1037.85 277.108,1036.18 277.5,1034.5 Z"/></g>
<g><path style="opacity:1" fill="#b29de5" d="M 1769.5,1034.5 C 1767.74,1040.97 1770.07,1043.64 1776.5,1042.5C 1769.37,1049.62 1761.37,1055.62 1752.5,1060.5C 1750.84,1059.12 1748.51,1057.62 1745.5,1056C 1747.04,1054.63 1748.37,1053.13 1749.5,1051.5C 1756.13,1045.84 1762.79,1040.18 1769.5,1034.5 Z"/></g>
<g><path style="opacity:1" fill="#bfafea" d="M 301.5,1054.5 C 307.246,1058.92 313.246,1062.92 319.5,1066.5C 319.953,1067.46 320.619,1068.29 321.5,1069C 320.027,1069.71 319.36,1070.88 319.5,1072.5C 318.5,1072.5 317.5,1072.5 316.5,1072.5C 308.111,1069.81 300.445,1065.81 293.5,1060.5C 294.583,1060.54 295.583,1060.87 296.5,1061.5C 298.229,1059.12 299.896,1056.79 301.5,1054.5 Z"/></g>
<g><path style="opacity:1" fill="#bfaeea" d="M 1749.5,1051.5 C 1748.37,1053.13 1747.04,1054.63 1745.5,1056C 1748.51,1057.62 1750.84,1059.12 1752.5,1060.5C 1745.98,1064.93 1738.98,1068.59 1731.5,1071.5C 1730.07,1070.55 1728.74,1069.39 1727.5,1068C 1729.09,1067.05 1730.43,1065.88 1731.5,1064.5C 1737.14,1059.68 1743.14,1055.35 1749.5,1051.5 Z"/></g>
<g><path style="opacity:1" fill="#9e81dc" d="M 643.5,1238.5 C 643.859,1240.37 644.859,1241.87 646.5,1243C 645.122,1246.64 642.455,1248.14 638.5,1247.5C 618.237,1231.77 598.404,1215.44 579,1198.5C 565.186,1183.02 552.52,1166.69 541,1149.5C 527.096,1126.79 520.763,1102.12 522,1075.5C 522.492,1070.86 523.825,1066.53 526,1062.5C 532.188,1056.47 536.355,1057.64 538.5,1066C 537.694,1071.86 536.694,1077.7 535.5,1083.5C 536.318,1098.44 539.818,1112.77 546,1126.5C 553.591,1142.03 562.924,1156.36 574,1169.5C 596.342,1193.34 619.509,1216.34 643.5,1238.5 Z"/></g>
<g><path style="opacity:1" fill="#9e81dc" d="M 1405.5,1250.5 C 1400.65,1249.28 1398.98,1246.28 1400.5,1241.5C 1403.25,1237.24 1406.58,1233.41 1410.5,1230C 1437.04,1207.8 1461.2,1183.3 1483,1156.5C 1493.71,1141.42 1502.04,1125.08 1508,1107.5C 1509.86,1100.63 1510.69,1093.63 1510.5,1086.5C 1510.18,1078.78 1509.68,1071.12 1509,1063.5C 1510.91,1059.99 1513.74,1058.82 1517.5,1060C 1524.13,1067.48 1526.79,1076.31 1525.5,1086.5C 1525.43,1106.22 1520.93,1124.89 1512,1142.5C 1497.16,1166.35 1479.66,1188.19 1459.5,1208C 1441.91,1222.76 1423.91,1236.93 1405.5,1250.5 Z"/></g>
<g><path style="opacity:1" fill="#d3cbf3" d="M 319.5,1066.5 C 325.443,1070.48 331.443,1074.48 337.5,1078.5C 331.386,1078.97 325.386,1077.81 319.5,1075C 318.058,1074.62 317.058,1073.79 316.5,1072.5C 317.5,1072.5 318.5,1072.5 319.5,1072.5C 319.36,1070.88 320.027,1069.71 321.5,1069C 320.619,1068.29 319.953,1067.46 319.5,1066.5 Z"/></g>
<g><path style="opacity:1" fill="#d2c9f2" d="M 1731.5,1064.5 C 1730.43,1065.88 1729.09,1067.05 1727.5,1068C 1728.74,1069.39 1730.07,1070.55 1731.5,1071.5C 1724.88,1075.97 1717.55,1078.47 1709.5,1079C 1716,1072.92 1723.33,1068.08 1731.5,1064.5 Z"/></g>
<g><path style="opacity:1" fill="#c9bdef" d="M 155.5,1104.5 C 156.969,1107.1 156.302,1109.27 153.5,1111C 142.808,1111.26 132.141,1111.76 121.5,1112.5C 122.263,1111.73 123.263,1111.23 124.5,1111C 132.159,1110.5 139.826,1110.33 147.5,1110.5C 152.206,1111.12 154.873,1109.12 155.5,1104.5 Z"/></g>
<g><path style="opacity:1" fill="#cfc6f2" d="M 1891.5,1104.5 C 1892.13,1109.12 1894.79,1111.12 1899.5,1110.5C 1906.69,1110.18 1913.69,1110.51 1920.5,1111.5C 1911.49,1111.67 1902.49,1111.5 1893.5,1111C 1890.7,1109.27 1890.03,1107.1 1891.5,1104.5 Z"/></g>
<g><path style="opacity:1" fill="#cdc3f1" d="M 233.5,1162.5 C 233.151,1157.82 230.818,1156.49 226.5,1158.5C 229.509,1156.33 232.843,1154.66 236.5,1153.5C 239.911,1153.4 241.245,1155.07 240.5,1158.5C 237.697,1158.96 235.363,1160.29 233.5,1162.5 Z"/></g>
<g><path style="opacity:1" fill="#9c7fdb" d="M 85.5,1151.5 C 84.9066,1166.81 86.7399,1181.81 91,1196.5C 113.745,1264.37 152.579,1321.03 207.5,1366.5C 207.555,1370.77 205.555,1373.1 201.5,1373.5C 199.139,1373.67 196.806,1374.01 194.5,1374.5C 154.981,1337.81 123.481,1295.15 100,1246.5C 89.732,1223.86 83.232,1200.2 80.5,1175.5C 80.7107,1167.06 82.3774,1159.06 85.5,1151.5 Z"/></g>
<g><path style="opacity:1" fill="#c6b9ed" d="M 1822.5,1160.5 C 1820.81,1161.47 1819.31,1162.81 1818,1164.5C 1816.89,1163.29 1816.39,1163.62 1816.5,1165.5C 1813.63,1162.81 1810.46,1160.48 1807,1158.5C 1806.28,1156.89 1806.45,1155.39 1807.5,1154C 1813.53,1153.92 1818.53,1156.08 1822.5,1160.5 Z"/></g>
<g><path style="opacity:1" fill="#9d7fdb" d="M 1961.5,1151.5 C 1964.62,1159.06 1966.29,1167.06 1966.5,1175.5C 1963.77,1200.2 1957.27,1223.86 1947,1246.5C 1923.64,1295.05 1892.14,1337.55 1852.5,1374C 1853.42,1374.28 1854.08,1374.78 1854.5,1375.5C 1849.58,1374.12 1844.58,1372.96 1839.5,1372C 1838.42,1370.27 1838.26,1368.44 1839,1366.5C 1894.32,1321.23 1933.32,1264.57 1956,1196.5C 1960.26,1181.81 1962.09,1166.81 1961.5,1151.5 Z"/></g>
<g><path style="opacity:1" fill="#b5a0e6" d="M 233.5,1162.5 C 229.836,1166.33 226.336,1170.33 223,1174.5C 221.083,1179.56 218.583,1184.22 215.5,1188.5C 216.519,1186.46 216.519,1184.46 215.5,1182.5C 213.162,1181.38 210.996,1180.05 209,1178.5C 208.583,1179.76 207.75,1180.42 206.5,1180.5C 210.871,1171.1 217.538,1163.77 226.5,1158.5C 230.818,1156.49 233.151,1157.82 233.5,1162.5 Z"/></g>
<g><path style="opacity:1" fill="#b39de5" d="M 1822.5,1160.5 C 1829.57,1165.23 1835.23,1171.23 1839.5,1178.5C 1835.98,1180.17 1832.65,1181.51 1829.5,1182.5C 1830.37,1184.45 1831.04,1186.45 1831.5,1188.5C 1829.16,1185.16 1827.33,1181.5 1826,1177.5C 1823.07,1173.29 1819.9,1169.29 1816.5,1165.5C 1816.39,1163.62 1816.89,1163.29 1818,1164.5C 1819.31,1162.81 1820.81,1161.47 1822.5,1160.5 Z"/></g>
<g><path style="opacity:1" fill="#aa91e1" d="M 1839.5,1178.5 C 1849.39,1193.83 1853.06,1210.5 1850.5,1228.5C 1850.91,1224.95 1850.41,1221.62 1849,1218.5C 1845.92,1219.29 1842.76,1219.79 1839.5,1220C 1838.87,1222.94 1838.21,1225.77 1837.5,1228.5C 1839.04,1214.5 1837.04,1201.17 1831.5,1188.5C 1831.04,1186.45 1830.37,1184.45 1829.5,1182.5C 1832.65,1181.51 1835.98,1180.17 1839.5,1178.5 Z"/></g>
<g><path style="opacity:1" fill="#c5b8ed" d="M 505.5,1203.5 C 504.28,1201.72 503.614,1199.72 503.5,1197.5C 499.094,1197.75 494.76,1198.41 490.5,1199.5C 493.198,1197.83 496.198,1196.66 499.5,1196C 506.582,1195.12 513.582,1195.45 520.5,1197C 515.475,1199.07 510.475,1201.23 505.5,1203.5 Z"/></g>
<g><path style="opacity:1" fill="#d2caf3" d="M 1557.5,1200.5 C 1550.52,1197.29 1543.19,1195.95 1535.5,1196.5C 1535.37,1198.29 1535.7,1199.96 1536.5,1201.5C 1532.7,1200.8 1529.03,1199.63 1525.5,1198C 1524.66,1196.99 1524.33,1195.82 1524.5,1194.5C 1535.55,1193.47 1546.21,1194.97 1556.5,1199C 1557.06,1199.38 1557.39,1199.88 1557.5,1200.5 Z"/></g>
<g><path style="opacity:1" fill="#b4a0e5" d="M 505.5,1203.5 C 490.359,1209.2 478.693,1218.87 470.5,1232.5C 471.434,1230.76 471.434,1229.09 470.5,1227.5C 468.124,1225.76 465.457,1224.76 462.5,1224.5C 469.385,1213.27 478.718,1204.94 490.5,1199.5C 494.76,1198.41 499.094,1197.75 503.5,1197.5C 503.614,1199.72 504.28,1201.72 505.5,1203.5 Z"/></g>
<g><path style="opacity:1" fill="#b6a1e6" d="M 1557.5,1200.5 C 1563.87,1204.02 1569.87,1208.19 1575.5,1213C 1579.5,1216.16 1582.5,1219.99 1584.5,1224.5C 1580.77,1224.62 1577.77,1226.12 1575.5,1229C 1575.99,1230.14 1576.32,1231.31 1576.5,1232.5C 1575.1,1229.37 1573.27,1226.37 1571,1223.5C 1560.66,1214.25 1549.16,1206.92 1536.5,1201.5C 1535.7,1199.96 1535.37,1198.29 1535.5,1196.5C 1543.19,1195.95 1550.52,1197.29 1557.5,1200.5 Z"/></g>
<g><path style="opacity:1" fill="#c2b3ec" d="M 197.5,1203.5 C 196.876,1211.82 196.543,1220.15 196.5,1228.5C 195.835,1225.18 195.501,1221.68 195.5,1218C 195.293,1212.9 195.96,1208.06 197.5,1203.5 Z"/></g>
<g><path style="opacity:1" fill="#bfafea" d="M 1400.5,1241.5 C 1398.98,1246.28 1400.65,1249.28 1405.5,1250.5C 1398.78,1256.04 1391.61,1261.04 1384,1265.5C 1382.83,1264.99 1382,1264.16 1381.5,1263C 1386.9,1255.09 1393.23,1247.93 1400.5,1241.5 Z"/></g>
<g><path style="opacity:1" fill="#c0b0eb" d="M 643.5,1238.5 C 651.312,1245.64 658.312,1253.47 664.5,1262C 663.646,1263.02 662.646,1263.86 661.5,1264.5C 652.918,1260.05 645.251,1254.38 638.5,1247.5C 642.455,1248.14 645.122,1246.64 646.5,1243C 644.859,1241.87 643.859,1240.37 643.5,1238.5 Z"/></g>
<g><path style="opacity:1" fill="#a68bdf" d="M 1584.5,1224.5 C 1588.62,1228.54 1591.12,1233.54 1592,1239.5C 1594.07,1253.83 1592.07,1267.5 1586,1280.5C 1583.97,1284.58 1581.47,1288.25 1578.5,1291.5C 1572.39,1291.64 1569.73,1288.64 1570.5,1282.5C 1574.23,1274.48 1577.06,1266.15 1579,1257.5C 1580.17,1248.89 1579.34,1240.56 1576.5,1232.5C 1576.32,1231.31 1575.99,1230.14 1575.5,1229C 1577.77,1226.12 1580.77,1224.62 1584.5,1224.5 Z"/></g>
<g><path style="opacity:1" fill="#a388de" d="M 215.5,1188.5 C 206.859,1206.88 206.359,1225.54 214,1244.5C 224.149,1263.6 237.316,1280.43 253.5,1295C 286.844,1321.67 322.177,1345.34 359.5,1366C 374.577,1372.85 389.244,1380.35 403.5,1388.5C 403.631,1389.24 403.464,1389.91 403,1390.5C 397.699,1387.43 392.199,1384.77 386.5,1382.5C 386.346,1383.91 386.179,1385.58 386,1387.5C 382.841,1388.74 383.007,1389.91 386.5,1391C 385.552,1391.48 384.552,1391.65 383.5,1391.5C 381.518,1391 379.518,1390.5 377.5,1390C 332.254,1367.71 289.92,1341.05 250.5,1310C 230.23,1293.41 214.063,1273.57 202,1250.5C 199.214,1243.35 197.38,1236.02 196.5,1228.5C 196.543,1220.15 196.876,1211.82 197.5,1203.5C 199.68,1195.48 202.68,1187.81 206.5,1180.5C 207.75,1180.42 208.583,1179.76 209,1178.5C 210.996,1180.05 213.162,1181.38 215.5,1182.5C 216.519,1184.46 216.519,1186.46 215.5,1188.5 Z"/></g>
<g><path style="opacity:1" fill="#c1b1eb" d="M 816.5,1280.5 C 817.871,1282.94 818.871,1285.6 819.5,1288.5C 817.345,1286.38 816.345,1283.72 816.5,1280.5 Z"/></g>
<g><path style="opacity:1" fill="#c1b1eb" d="M 1230.5,1280.5 C 1230.65,1283.72 1229.65,1286.38 1227.5,1288.5C 1228.13,1285.6 1229.13,1282.94 1230.5,1280.5 Z"/></g>
<g><path style="opacity:1" fill="#a88fe0" d="M 462.5,1224.5 C 465.457,1224.76 468.124,1225.76 470.5,1227.5C 471.434,1229.09 471.434,1230.76 470.5,1232.5C 467.377,1241.58 466.71,1250.91 468.5,1260.5C 471.213,1270.6 475.046,1280.26 480,1289.5C 488.151,1298.95 496.651,1308.12 505.5,1317C 515.392,1324.1 525.392,1330.94 535.5,1337.5C 535.082,1338.22 534.416,1338.72 533.5,1339C 534.28,1340.07 534.113,1341.24 533,1342.5C 531.488,1341.74 530.154,1340.74 529,1339.5C 527.246,1341.25 525.079,1341.92 522.5,1341.5C 495.274,1328.11 474.774,1307.77 461,1280.5C 454.706,1266.8 452.873,1252.46 455.5,1237.5C 457.102,1232.64 459.436,1228.31 462.5,1224.5 Z"/></g>
<g><path style="opacity:1" fill="#a990e1" d="M 1570.5,1282.5 C 1569.73,1288.64 1572.39,1291.64 1578.5,1291.5C 1566.22,1314.11 1548.22,1330.45 1524.5,1340.5C 1519.23,1338.47 1518.23,1335.14 1521.5,1330.5C 1541.81,1318.52 1558.14,1302.52 1570.5,1282.5 Z"/></g>
<g><path style="opacity:1" fill="#c4b6ec" d="M 535.5,1337.5 C 539.942,1339.44 544.275,1341.61 548.5,1344C 549.337,1345.01 549.67,1346.18 549.5,1347.5C 546.15,1347.67 542.817,1347.5 539.5,1347C 533.716,1345.08 528.049,1343.25 522.5,1341.5C 525.079,1341.92 527.246,1341.25 529,1339.5C 530.154,1340.74 531.488,1341.74 533,1342.5C 534.113,1341.24 534.28,1340.07 533.5,1339C 534.416,1338.72 535.082,1338.22 535.5,1337.5 Z"/></g>
<g><path style="opacity:1" fill="#bcabe9" d="M 1521.5,1330.5 C 1518.23,1335.14 1519.23,1338.47 1524.5,1340.5C 1520.22,1342.04 1515.88,1343.71 1511.5,1345.5C 1509.5,1345.5 1507.5,1345.5 1505.5,1345.5C 1505.33,1343.38 1505.66,1341.38 1506.5,1339.5C 1511.33,1336.25 1516.33,1333.25 1521.5,1330.5 Z"/></g>
<g><path style="opacity:1" fill="#cfc6f1" d="M 1506.5,1339.5 C 1505.66,1341.38 1505.33,1343.38 1505.5,1345.5C 1507.5,1345.5 1509.5,1345.5 1511.5,1345.5C 1506.08,1347.28 1500.41,1347.78 1494.5,1347C 1497.68,1343.24 1501.68,1340.74 1506.5,1339.5 Z"/></g>
<g><path style="opacity:1" fill="#a489de" d="M 1850.5,1228.5 C 1849.62,1236.02 1847.79,1243.35 1845,1250.5C 1838.23,1263.93 1829.9,1276.26 1820,1287.5C 1800.57,1306.94 1779.41,1324.11 1756.5,1339C 1707.65,1370.76 1655.98,1397.26 1601.5,1418.5C 1600.13,1418.66 1598.79,1418.49 1597.5,1418C 1605.14,1414.85 1612.8,1411.69 1620.5,1408.5C 1619.5,1407.17 1618.5,1405.83 1617.5,1404.5C 1624.78,1399.86 1632.44,1395.69 1640.5,1392C 1641.31,1390.89 1641.97,1389.72 1642.5,1388.5C 1695.15,1363.34 1744.48,1332.84 1790.5,1297C 1808.4,1282.44 1822.56,1264.94 1833,1244.5C 1834.5,1239.15 1836,1233.81 1837.5,1228.5C 1838.21,1225.77 1838.87,1222.94 1839.5,1220C 1842.76,1219.79 1845.92,1219.29 1849,1218.5C 1850.41,1221.62 1850.91,1224.95 1850.5,1228.5 Z"/></g>
<g><path style="opacity:1" fill="#cdc3f1" d="M 207.5,1366.5 C 208.812,1367.15 209.812,1368.15 210.5,1369.5C 208.455,1372.75 205.455,1374.08 201.5,1373.5C 205.555,1373.1 207.555,1370.77 207.5,1366.5 Z"/></g>
<g><path style="opacity:1" fill="#aa91e1" d="M 403.5,1388.5 C 414.264,1393.05 424.931,1397.88 435.5,1403C 451.287,1408.98 466.954,1415.15 482.5,1421.5C 481.432,1422.43 480.099,1422.77 478.5,1422.5C 478.703,1424.39 478.037,1425.89 476.5,1427C 477.328,1427.91 478.328,1428.58 479.5,1429C 475.83,1428.84 472.163,1428.34 468.5,1427.5C 459.77,1424.97 451.103,1422.14 442.5,1419C 440.156,1418.16 438.156,1416.83 436.5,1415C 433.576,1414.01 430.576,1413.35 427.5,1413C 417.543,1407.52 407.21,1402.86 396.5,1399C 392.104,1396.47 387.771,1393.97 383.5,1391.5C 384.552,1391.65 385.552,1391.48 386.5,1391C 383.007,1389.91 382.841,1388.74 386,1387.5C 386.179,1385.58 386.346,1383.91 386.5,1382.5C 392.199,1384.77 397.699,1387.43 403,1390.5C 403.464,1389.91 403.631,1389.24 403.5,1388.5 Z"/></g>
<g><path style="opacity:1" fill="#bca9e9" d="M 1177.5,1391.5 C 1177.83,1394.23 1177.16,1396.56 1175.5,1398.5C 1175.41,1395.85 1176.08,1393.51 1177.5,1391.5 Z"/></g>
<g><path style="opacity:1" fill="#ad96e2" d="M 1642.5,1388.5 C 1641.97,1389.72 1641.31,1390.89 1640.5,1392C 1632.44,1395.69 1624.78,1399.86 1617.5,1404.5C 1618.5,1405.83 1619.5,1407.17 1620.5,1408.5C 1612.8,1411.69 1605.14,1414.85 1597.5,1418C 1598.79,1418.49 1600.13,1418.66 1601.5,1418.5C 1591.24,1423.07 1580.57,1426.74 1569.5,1429.5C 1568.76,1429.63 1568.09,1429.46 1567.5,1429C 1568.67,1428.58 1569.67,1427.91 1570.5,1427C 1568.96,1425.89 1568.3,1424.39 1568.5,1422.5C 1567.13,1422.66 1565.79,1422.49 1564.5,1422C 1566.43,1420.54 1568.43,1419.37 1570.5,1418.5C 1581.84,1414.2 1593.17,1409.37 1604.5,1404C 1617.45,1399.7 1630.12,1394.53 1642.5,1388.5 Z"/></g>
<g><path style="opacity:1" fill="#b9a6e8" d="M 300.5,1449.5 C 296.811,1442.4 295.144,1434.74 295.5,1426.5C 293.167,1426.5 290.833,1426.5 288.5,1426.5C 288.724,1424.21 289.391,1422.05 290.5,1420C 290.333,1419.5 290.167,1419 290,1418.5C 289.583,1419.76 288.75,1420.42 287.5,1420.5C 290.857,1413.31 295.857,1407.47 302.5,1403C 304.473,1402.5 306.473,1402.34 308.5,1402.5C 308.649,1403.55 308.483,1404.55 308,1405.5C 303.875,1410.3 300.542,1415.63 298,1421.5C 296.826,1431.05 297.659,1440.39 300.5,1449.5 Z"/></g>
<g><path style="opacity:1" fill="#bba9e8" d="M 1759.5,1420.5 C 1758.54,1420.05 1757.71,1419.38 1757,1418.5C 1756.57,1420.67 1757.07,1422.67 1758.5,1424.5C 1756.89,1425.32 1755.23,1425.99 1753.5,1426.5C 1752.75,1425.62 1752.25,1424.62 1752,1423.5C 1751.35,1422.3 1750.85,1422.3 1750.5,1423.5C 1752.19,1432.72 1750.85,1441.38 1746.5,1449.5C 1749.34,1440.39 1750.17,1431.05 1749,1421.5C 1745.43,1415.36 1742.1,1409.36 1739,1403.5C 1740.39,1402.45 1741.89,1402.28 1743.5,1403C 1750.79,1407.12 1756.13,1412.96 1759.5,1420.5 Z"/></g>
<g><path style="opacity:1" fill="#9c7edb" d="M 155.5,1416.5 C 154.134,1435.17 158.301,1452.51 168,1468.5C 176.44,1480.18 185.94,1491.01 196.5,1501C 223.069,1523.95 251.069,1544.95 280.5,1564C 313.341,1581.72 347.674,1595.72 383.5,1606C 394.687,1613.1 406.354,1619.43 418.5,1625C 442.595,1634.37 467.261,1641.7 492.5,1647C 532.328,1654.98 572.328,1661.98 612.5,1668C 634.483,1669.44 656.483,1669.77 678.5,1669C 710.356,1663.54 741.69,1655.87 772.5,1646C 817.62,1627.37 852.787,1597.2 878,1555.5C 891.352,1531.91 896.852,1506.58 894.5,1479.5C 902.474,1511.03 898.307,1541.03 882,1569.5C 857.542,1611.29 823.042,1641.79 778.5,1661C 757.173,1668.42 735.507,1674.75 713.5,1680C 703.34,1682.9 693.007,1684.9 682.5,1686C 655.116,1687.09 627.783,1686.42 600.5,1684C 560.757,1677.05 521.09,1669.72 481.5,1662C 445.041,1653.96 410.708,1640.63 378.5,1622C 361.739,1617.52 345.405,1611.86 329.5,1605C 312.585,1596.81 295.585,1588.81 278.5,1581C 244.067,1558.85 211.901,1533.68 182,1505.5C 170.593,1494.36 161.926,1481.36 156,1466.5C 151.81,1453.82 150.476,1440.82 152,1427.5C 152.498,1423.51 153.665,1419.84 155.5,1416.5 Z"/></g>
<g><path style="opacity:1" fill="#d5cdf4" d="M 695.5,1421.5 C 704.657,1420.34 713.991,1420.18 723.5,1421C 725.653,1421.1 727.319,1421.93 728.5,1423.5C 717.582,1421.79 706.582,1421.13 695.5,1421.5 Z"/></g>
<g><path style="opacity:1" fill="#9c7edb" d="M 1891.5,1416.5 C 1899.26,1441.88 1895.43,1465.55 1880,1487.5C 1869.57,1501.26 1857.74,1513.76 1844.5,1525C 1821.01,1544.16 1796.68,1562.16 1771.5,1579C 1738.64,1596.93 1704.31,1611.27 1668.5,1622C 1631.58,1642.86 1592.25,1657.2 1550.5,1665C 1515.88,1671.55 1481.21,1677.88 1446.5,1684C 1419.22,1686.42 1391.88,1687.09 1364.5,1686C 1353.99,1684.9 1343.66,1682.9 1333.5,1680C 1313.61,1675.11 1293.94,1669.44 1274.5,1663C 1222.32,1640.82 1183.82,1604.32 1159,1553.5C 1149.64,1529.16 1148.14,1504.49 1154.5,1479.5C 1152.93,1499.37 1155.43,1518.71 1162,1537.5C 1188.77,1592.93 1231.27,1630.76 1289.5,1651C 1310.1,1656.65 1330.77,1661.98 1351.5,1667C 1381.82,1670.23 1412.15,1670.23 1442.5,1667C 1482.95,1660.31 1523.29,1652.98 1563.5,1645C 1575.6,1641.98 1587.6,1638.64 1599.5,1635C 1622.1,1628.03 1643.44,1618.36 1663.5,1606C 1745.13,1582.95 1814.63,1540.45 1872,1478.5C 1886.43,1460.38 1892.93,1439.71 1891.5,1416.5 Z"/></g>
<g><path style="opacity:1" fill="#ad95e2" d="M 300.5,1449.5 C 303.07,1454.74 306.07,1459.74 309.5,1464.5C 308.761,1464.37 308.094,1464.54 307.5,1465C 308.257,1466.51 309.257,1467.85 310.5,1469C 308.376,1470.12 306.543,1471.62 305,1473.5C 303.667,1472.17 302.333,1470.83 301,1469.5C 300.536,1470.09 300.369,1470.76 300.5,1471.5C 298.592,1468.72 296.425,1466.05 294,1463.5C 290.844,1455.86 287.844,1448.19 285,1440.5C 283.968,1433.51 284.801,1426.85 287.5,1420.5C 288.75,1420.42 289.583,1419.76 290,1418.5C 290.167,1419 290.333,1419.5 290.5,1420C 289.391,1422.05 288.724,1424.21 288.5,1426.5C 290.833,1426.5 293.167,1426.5 295.5,1426.5C 295.144,1434.74 296.811,1442.4 300.5,1449.5 Z"/></g>
<g><path style="opacity:1" fill="#9f82dc" d="M 695.5,1421.5 C 706.582,1421.13 717.582,1421.79 728.5,1423.5C 758.226,1431.39 780.06,1449.06 794,1476.5C 794.977,1478.74 795.477,1481.07 795.5,1483.5C 795.5,1490.83 795.5,1498.17 795.5,1505.5C 789.566,1520.98 778.232,1528.14 761.5,1527C 753.374,1523.59 750.541,1517.75 753,1509.5C 754.264,1507.39 756.097,1506.39 758.5,1506.5C 760.5,1506.5 762.5,1506.5 764.5,1506.5C 764.779,1509.12 765.446,1511.62 766.5,1514C 768.5,1514.67 770.5,1514.67 772.5,1514C 774.119,1513.76 775.119,1512.93 775.5,1511.5C 783.545,1503.71 785.711,1494.38 782,1483.5C 773.525,1465.69 760.359,1452.53 742.5,1444C 725.825,1436.71 708.492,1434.38 690.5,1437C 681.847,1438.74 674.68,1442.91 669,1449.5C 657.25,1468.83 651.917,1489.83 653,1512.5C 655.964,1526.42 661.631,1539.09 670,1550.5C 674.702,1555.37 679.535,1560.04 684.5,1564.5C 686.544,1571.46 683.877,1574.46 676.5,1573.5C 672.959,1570.69 668.959,1568.52 664.5,1567C 653.551,1556.61 646.051,1544.11 642,1529.5C 635.59,1508.67 634.924,1487.67 640,1466.5C 645.38,1453.22 653.547,1442.05 664.5,1433C 673.816,1426.54 684.149,1422.71 695.5,1421.5 Z"/></g>
<g><path style="opacity:1" fill="#a083dc" d="M 1364.5,1574.5 C 1361.36,1573.57 1359.7,1571.4 1359.5,1568C 1360.38,1567.29 1361.05,1566.46 1361.5,1565.5C 1392.08,1539.58 1401.58,1507.25 1390,1468.5C 1381.87,1448.36 1367.04,1437.53 1345.5,1436C 1310.16,1435.01 1283.66,1449.84 1266,1480.5C 1260.87,1492.83 1263.03,1503.49 1272.5,1512.5C 1274.75,1513.37 1277.08,1513.71 1279.5,1513.5C 1278.67,1506.5 1281.67,1504 1288.5,1506C 1295.67,1509.5 1297.17,1514.67 1293,1521.5C 1285.84,1527.68 1277.68,1529.18 1268.5,1526C 1260.57,1520.92 1254.9,1514.09 1251.5,1505.5C 1251.06,1496.05 1251.73,1486.72 1253.5,1477.5C 1258.31,1464.74 1265.98,1453.91 1276.5,1445C 1287.13,1436.52 1298.8,1429.85 1311.5,1425C 1337.61,1416.52 1361.94,1419.86 1384.5,1435C 1406.62,1455.36 1415.12,1480.52 1410,1510.5C 1408.64,1532.96 1399.8,1551.79 1383.5,1567C 1377.13,1569.52 1370.8,1572.02 1364.5,1574.5 Z"/></g>
<g><path style="opacity:1" fill="#ad95e2" d="M 1759.5,1420.5 C 1762.2,1426.85 1763.03,1433.51 1762,1440.5C 1760.24,1445.69 1758.41,1450.86 1756.5,1456C 1753.51,1461.49 1750.18,1466.66 1746.5,1471.5C 1746.63,1470.76 1746.46,1470.09 1746,1469.5C 1744.67,1470.83 1743.33,1472.17 1742,1473.5C 1740.46,1471.62 1738.62,1470.12 1736.5,1469C 1738.93,1467.45 1738.93,1466.28 1736.5,1465.5C 1740.26,1460.41 1743.59,1455.08 1746.5,1449.5C 1750.85,1441.38 1752.19,1432.72 1750.5,1423.5C 1750.85,1422.3 1751.35,1422.3 1752,1423.5C 1752.25,1424.62 1752.75,1425.62 1753.5,1426.5C 1755.23,1425.99 1756.89,1425.32 1758.5,1424.5C 1757.07,1422.67 1756.57,1420.67 1757,1418.5C 1757.71,1419.38 1758.54,1420.05 1759.5,1420.5 Z"/></g>
<g><path style="opacity:1" fill="#b7a4e7" d="M 482.5,1421.5 C 494.169,1425.16 505.836,1428.66 517.5,1432C 519.846,1433.01 521.513,1434.68 522.5,1437C 522.18,1438.65 521.18,1439.65 519.5,1440C 515.131,1440.42 510.797,1440.09 506.5,1439C 500.302,1437.75 494.302,1435.75 488.5,1433C 481.317,1432.43 474.651,1430.6 468.5,1427.5C 472.163,1428.34 475.83,1428.84 479.5,1429C 478.328,1428.58 477.328,1427.91 476.5,1427C 478.037,1425.89 478.703,1424.39 478.5,1422.5C 480.099,1422.77 481.432,1422.43 482.5,1421.5 Z"/></g>
<g><path style="opacity:1" fill="#b8a5e7" d="M 1570.5,1418.5 C 1568.43,1419.37 1566.43,1420.54 1564.5,1422C 1565.79,1422.49 1567.13,1422.66 1568.5,1422.5C 1568.3,1424.39 1568.96,1425.89 1570.5,1427C 1569.67,1427.91 1568.67,1428.58 1567.5,1429C 1568.09,1429.46 1568.76,1429.63 1569.5,1429.5C 1558.06,1433.63 1546.4,1437.13 1534.5,1440C 1531.83,1440.67 1529.17,1440.67 1526.5,1440C 1523.59,1436.57 1524.25,1433.91 1528.5,1432C 1542.67,1427.68 1556.67,1423.18 1570.5,1418.5 Z"/></g>
<g><path style="opacity:1" fill="#bca9e9" d="M 879.5,1422.5 C 880.612,1424.6 881.279,1426.93 881.5,1429.5C 879.837,1427.56 879.171,1425.23 879.5,1422.5 Z"/></g>
<g><path style="opacity:1" fill="#bca9e9" d="M 1169.5,1422.5 C 1169.83,1425.23 1169.16,1427.56 1167.5,1429.5C 1167.72,1426.93 1168.39,1424.6 1169.5,1422.5 Z"/></g>
<g><path style="opacity:1" fill="#b8a4e7" d="M 881.5,1430.5 C 882.612,1432.6 883.279,1434.93 883.5,1437.5C 881.837,1435.56 881.171,1433.23 881.5,1430.5 Z"/></g>
<g><path style="opacity:1" fill="#b8a4e7" d="M 1167.5,1430.5 C 1167.83,1433.23 1167.16,1435.56 1165.5,1437.5C 1165.72,1434.93 1166.39,1432.6 1167.5,1430.5 Z"/></g>
<g><path style="opacity:1" fill="#b8a5e7" d="M 795.5,1483.5 C 798.036,1490.85 798.036,1498.18 795.5,1505.5C 795.5,1498.17 795.5,1490.83 795.5,1483.5 Z"/></g>
<g><path style="opacity:1" fill="#b8a5e7" d="M 1253.5,1477.5 C 1251.73,1486.72 1251.06,1496.05 1251.5,1505.5C 1248.61,1495.95 1249.28,1486.61 1253.5,1477.5 Z"/></g>
<g><path style="opacity:1" fill="#a489de" d="M 1736.5,1465.5 C 1738.93,1466.28 1738.93,1467.45 1736.5,1469C 1738.62,1470.12 1740.46,1471.62 1742,1473.5C 1743.33,1472.17 1744.67,1470.83 1746,1469.5C 1746.46,1470.09 1746.63,1470.76 1746.5,1471.5C 1733.09,1488.08 1717.09,1501.58 1698.5,1512C 1664.01,1531.01 1627.01,1541.51 1587.5,1543.5C 1578.83,1543.67 1570.16,1543.5 1561.5,1543C 1564.83,1542.67 1568.17,1542.33 1571.5,1542C 1571.78,1540.04 1571.78,1537.88 1571.5,1535.5C 1566.01,1535.83 1561.01,1535.83 1556.5,1535.5C 1562.62,1534.36 1568.62,1533.36 1574.5,1532.5C 1592.11,1530.03 1609.78,1527.53 1627.5,1525C 1669.86,1516.16 1706.19,1496.32 1736.5,1465.5 Z"/></g>
<g><path style="opacity:1" fill="#b8a4e7" d="M 758.5,1506.5 C 765.172,1503.82 768.172,1506.16 767.5,1513.5C 770.327,1513.42 772.994,1512.75 775.5,1511.5C 775.119,1512.93 774.119,1513.76 772.5,1514C 770.5,1514.67 768.5,1514.67 766.5,1514C 765.446,1511.62 764.779,1509.12 764.5,1506.5C 762.5,1506.5 760.5,1506.5 758.5,1506.5 Z"/></g>
<g><path style="opacity:1" fill="#a489de" d="M 309.5,1464.5 C 329.752,1485.92 353.418,1502.42 380.5,1514C 410.17,1524.43 440.837,1530.6 472.5,1532.5C 478.301,1533.68 484.301,1534.35 490.5,1534.5C 490.631,1535.24 490.464,1535.91 490,1536.5C 485.47,1535.75 480.636,1535.41 475.5,1535.5C 475.216,1537.88 475.216,1540.04 475.5,1542C 488.817,1542.83 488.817,1543.33 475.5,1543.5C 464.154,1543.51 452.821,1543.18 441.5,1542.5C 390.723,1537.03 346.556,1517.03 309,1482.5C 305.951,1478.96 303.118,1475.29 300.5,1471.5C 300.369,1470.76 300.536,1470.09 301,1469.5C 302.333,1470.83 303.667,1472.17 305,1473.5C 306.543,1471.62 308.376,1470.12 310.5,1469C 309.257,1467.85 308.257,1466.51 307.5,1465C 308.094,1464.54 308.761,1464.37 309.5,1464.5 Z"/></g>
<g><path style="opacity:1" fill="#b099e3" d="M 1574.5,1532.5 C 1568.62,1533.36 1562.62,1534.36 1556.5,1535.5C 1561.01,1535.83 1566.01,1535.83 1571.5,1535.5C 1571.78,1537.88 1571.78,1540.04 1571.5,1542C 1568.17,1542.33 1564.83,1542.67 1561.5,1543C 1570.16,1543.5 1578.83,1543.67 1587.5,1543.5C 1586.43,1544.43 1585.1,1544.77 1583.5,1544.5C 1564.83,1544.67 1546.16,1544.5 1527.5,1544C 1525.05,1543.71 1522.71,1543.04 1520.5,1542C 1521.77,1540.2 1521.77,1538.37 1520.5,1536.5C 1521.95,1535.83 1523.28,1535.16 1524.5,1534.5C 1533.68,1534.83 1542.68,1534.49 1551.5,1533.5C 1559.13,1532.64 1566.8,1532.31 1574.5,1532.5 Z"/></g>
<g><path style="opacity:1" fill="#ad96e2" d="M 490.5,1534.5 C 500.484,1535.17 510.484,1535.67 520.5,1536C 517.086,1536.3 513.753,1536.96 510.5,1538C 510.967,1541.46 512.967,1543.13 516.5,1543C 514.618,1543.2 512.952,1543.7 511.5,1544.5C 510.833,1544.5 510.167,1544.5 509.5,1544.5C 497.988,1544.83 486.654,1544.49 475.5,1543.5C 488.817,1543.33 488.817,1542.83 475.5,1542C 475.216,1540.04 475.216,1537.88 475.5,1535.5C 480.636,1535.41 485.47,1535.75 490,1536.5C 490.464,1535.91 490.631,1535.24 490.5,1534.5 Z"/></g>
<g><path style="opacity:1" fill="#bba9e8" d="M 472.5,1532.5 C 489.164,1533.23 505.831,1533.89 522.5,1534.5C 533.326,1535.33 544.326,1535.83 555.5,1536C 553.311,1536.68 552.978,1537.84 554.5,1539.5C 550.681,1540.4 547.014,1541.4 543.5,1542.5C 532.799,1542.7 522.132,1543.36 511.5,1544.5C 512.952,1543.7 514.618,1543.2 516.5,1543C 512.967,1543.13 510.967,1541.46 510.5,1538C 513.753,1536.96 517.086,1536.3 520.5,1536C 510.484,1535.67 500.484,1535.17 490.5,1534.5C 484.301,1534.35 478.301,1533.68 472.5,1532.5 Z"/></g>
<g><path style="opacity:1" fill="#ccc1f0" d="M 522.5,1534.5 C 537.5,1534.5 552.5,1534.5 567.5,1534.5C 567.773,1536.45 567.107,1537.95 565.5,1539C 558.243,1540.71 550.91,1541.88 543.5,1542.5C 547.014,1541.4 550.681,1540.4 554.5,1539.5C 552.978,1537.84 553.311,1536.68 555.5,1536C 544.326,1535.83 533.326,1535.33 522.5,1534.5 Z"/></g>
<g><path style="opacity:1" fill="#d4cdf4" d="M 1551.5,1533.5 C 1542.68,1534.49 1533.68,1534.83 1524.5,1534.5C 1513.83,1534.33 1503.16,1534.5 1492.5,1535C 1491.69,1535.31 1491.03,1535.81 1490.5,1536.5C 1491,1537.72 1491.33,1538.88 1491.5,1540C 1495.61,1540.94 1499.61,1541.78 1503.5,1542.5C 1493.66,1541.96 1483.99,1540.29 1474.5,1537.5C 1474.33,1536.18 1474.66,1535.01 1475.5,1534C 1500.83,1533.5 1526.16,1533.33 1551.5,1533.5 Z"/></g>
<g><path style="opacity:1" fill="#c0b0eb" d="M 1524.5,1534.5 C 1523.28,1535.16 1521.95,1535.83 1520.5,1536.5C 1521.77,1538.37 1521.77,1540.2 1520.5,1542C 1522.71,1543.04 1525.05,1543.71 1527.5,1544C 1546.16,1544.5 1564.83,1544.67 1583.5,1544.5C 1556.76,1546.26 1530.09,1545.59 1503.5,1542.5C 1499.61,1541.78 1495.61,1540.94 1491.5,1540C 1491.33,1538.88 1491,1537.72 1490.5,1536.5C 1491.03,1535.81 1491.69,1535.31 1492.5,1535C 1503.16,1534.5 1513.83,1534.33 1524.5,1534.5 Z"/></g>
<g><path style="opacity:1" fill="#c2b3ec" d="M 441.5,1542.5 C 452.821,1543.18 464.154,1543.51 475.5,1543.5C 486.654,1544.49 497.988,1544.83 509.5,1544.5C 493.339,1545.66 477.005,1545.83 460.5,1545C 453.92,1544.92 447.587,1544.09 441.5,1542.5 Z"/></g>
<g><path style="opacity:1" fill="#bbaae9" d="M 684.5,1564.5 C 688.537,1567.53 692.87,1570.19 697.5,1572.5C 698.298,1575.9 696.798,1577.9 693,1578.5C 687.077,1577.82 681.577,1576.15 676.5,1573.5C 683.877,1574.46 686.544,1571.46 684.5,1564.5 Z"/></g>
<g><path style="opacity:1" fill="#bcaae9" d="M 1361.5,1565.5 C 1361.05,1566.46 1360.38,1567.29 1359.5,1568C 1359.7,1571.4 1361.36,1573.57 1364.5,1574.5C 1361.64,1576.3 1358.47,1577.63 1355,1578.5C 1350.34,1576.67 1349.5,1573.83 1352.5,1570C 1355.24,1567.96 1358.24,1566.46 1361.5,1565.5 Z"/></g>
<g><path style="opacity:0.548" fill="#090212" d="M 2047.5,1838.5 C 2047.5,1843.83 2047.5,1849.17 2047.5,1854.5C 2032.72,1940.11 1985.39,1999.94 1905.5,2034C 1888.82,2040.25 1871.82,2044.75 1854.5,2047.5C 1850.17,2047.5 1845.83,2047.5 1841.5,2047.5C 1866.15,2044.5 1890.15,2038.34 1913.5,2029C 1993.54,1990.42 2038.21,1926.92 2047.5,1838.5 Z"/></g>
</svg>
